PathFileType	4	(X/Y/Z)	Walk4.trc
DataRate	CameraRate	NumFrames	NumMarkers	Units	OrigDataRate	OrigDataStartFrame	OrigNumFrames
200.000000	200.000000	8	61	mm	200.000000	627	718
Frame#	Times		RCAR		LToe		LLFC		RWRU		RACR1		RFA1		RFHD		LUA1		LFA1		LCAR		RWRR		LElbow		STRN		RLFC		LACR1		LWRU		RTH3		RTB2		LWRR		C7		LFHD		RToe		RMFC		RMT1		RTH2		RMT5		LTH3		LPSI		RPSI		RTB3		LTH4		LTB1		RASI		RCAL		RTB1		LTB3		LTB4		CLAV		LTH2		LTH1		LMT5		RTB4		LTB2		LMT1		RLMAL		RMMAL		LBHD		LMFC		RBHD		RUA1		RElbow		LLMAL		RBack		LASI		RTH1		RTH4		T10		LCAL		LElbowM		LMMAL		RElbowM
			X1	Y1	Z1	X2	Y2	Z2	X3	Y3	Z3	X4	Y4	Z4	X5	Y5	Z5	X6	Y6	Z6	X7	Y7	Z7	X8	Y8	Z8	X9	Y9	Z9	X10	Y10	Z10	X11	Y11	Z11	X12	Y12	Z12	X13	Y13	Z13	X14	Y14	Z14	X15	Y15	Z15	X16	Y16	Z16	X17	Y17	Z17	X18	Y18	Z18	X19	Y19	Z19	X20	Y20	Z20	X21	Y21	Z21	X22	Y22	Z22	X23	Y23	Z23	X24	Y24	Z24	X25	Y25	Z25	X26	Y26	Z26	X27	Y27	Z27	X28	Y28	Z28	X29	Y29	Z29	X30	Y30	Z30	X31	Y31	Z31	X32	Y32	Z32	X33	Y33	Z33	X34	Y34	Z34	X35	Y35	Z35	X36	Y36	Z36	X37	Y37	Z37	X38	Y38	Z38	X39	Y39	Z39	X40	Y40	Z40	X41	Y41	Z41	X42	Y42	Z42	X43	Y43	Z43	X44	Y44	Z44	X45	Y45	Z45	X46	Y46	Z46	X47	Y47	Z47	X48	Y48	Z48	X49	Y49	Z49	X50	Y50	Z50	X51	Y51	Z51	X52	Y52	Z52	X53	Y53	Z53	X54	Y54	Z54	X55	Y55	Z55	X56	Y56	Z56	X57	Y57	Z57	X58	Y58	Z58	X59	Y59	Z59	X60	Y60	Z60	X61	Y61	Z61

627	3.135	949.32	870.89	362.05	1168.2	46.016	-54.288	888.82	504.15	-146.26	944.04	906.33	296.05	802.3	1494.4	192.54	877.91	1038.1	327.59	945.01	1668.3	73.61	725.7	1325.4	-248.86	740.65	1021.2	-307.93	762.88	853.38	-329.12	883.85	896.78	361.29	673.59	1158.8	-285.02	903.73	1283.5	-4.0349	628.79	505.65	208.16	754.05	1511.3	-175.15	695.52	895.92	-317.92	654.76	635.48	210.79	519.29	292.09	181.68	780.19	890.62	-275.03	676.84	1546.5	29.111	945.65	1669.8	-32.188	485.98	32.012	90.712	630.01	493.85	61.755	449.53	56.889	82.629	724.62	712.89	216.86	400.19	44.83	170.43	867.31	648.38	-174.09	610.64	1059.3	-48.946	612.21	1053.9	60.52	463.14	232.54	113.34	836.66	727.8	-193.64	954.34	369.66	-39.948	830.04	1023.7	166.52	277.49	181.72	109.06	584.13	356.68	125.65	972.34	200.24	-31.847	961.36	285.4	-35.542	840.52	1454.7	-8.2411	890.12	752.13	-184.79	805.3	807.92	-208.26	1067.8	30.2	-122.31	523.93	293.33	117.45	985.67	284.43	-94.5	1113.1	48.283	-37.441	341.61	168.28	151.79	385.86	174.3	61.967	778.82	1682	-52.615	897.17	506.42	-4.7971	774.72	1683.8	89.379	801.31	1316.6	270.52	776.02	1155.2	321.13	972	97.545	7.9452	630.27	1428.8	152.64	837.12	1023.8	-150.06	675.03	805.49	225.05	664.08	718.99	219.38	626.69	1188.2	10.432	889.69	43.353	-46.487	653.67	1134.3	-195.83	951.09	67.766	-90.446	743.31	1122.8	235.54
628	3.14	952.29	871.02	361.57	1168.8	44.702	-54.376	892.17	504.45	-146.96	947.46	906.66	295.63	808	1495.4	191.31	881.85	1038.9	326.97	950.67	1669	72.532	731.92	1326.4	-249.87	747.63	1022.4	-308.67	770.48	854.63	-329.63	886.97	897.4	360.64	680.02	1159.8	-286.11	909.3	1284.4	-5.0145	638.75	505.55	208.68	759.86	1512.4	-176.15	702.97	896.98	-318.59	663.51	634.95	210.67	526.57	293.84	182.41	787.68	892.02	-275.64	682.42	1547.4	27.999	951.37	1670.5	-33.255	486.85	31.735	91.157	640.84	492.83	62.3	451.61	58.148	83.105	732.58	713.1	216.53	401.53	46.879	170.15	871.28	648.91	-174.87	616.17	1060.2	-49.807	617.65	1054.7	59.668	469.77	234.97	113.94	841.18	728.49	-194.48	956.86	369.66	-40.453	835.55	1024.7	165.22	283.7	188.36	109.07	592.67	357.07	126.43	973.57	200.13	-32.1	963.23	285.36	-35.936	846.12	1455.7	-9.2666	894.76	752.44	-185.73	810.42	808.81	-209.2	1067.8	29.846	-122.75	531.52	294.56	118.19	987.56	284.13	-94.869	1113.6	47.942	-37.446	346.95	172.99	152.14	391.77	177.92	62.484	784.56	1682.9	-53.807	900.86	506.81	-5.6149	780.38	1684.8	88.158	806.63	1317.6	269.35	780.55	1156.4	320.08	972.47	97.434	7.8114	636.01	1429.9	151.8	842.54	1024.9	-151.26	682.05	805.24	224.09	671.98	718.56	218.75	632.16	1189.1	9.4206	889.92	43.551	-46.585	659.95	1135.3	-196.91	951.42	67.497	-90.621	748.28	1124.3	234.26
629	3.145	955.25	871.14	361.1	1169.3	43.475	-54.411	895.33	504.7	-147.61	950.88	906.99	295.23	813.64	1496.5	190.11	885.78	1039.6	326.37	956.29	1669.8	71.486	738.12	1327.5	-250.91	754.64	1023.5	-309.43	778.15	855.88	-330.13	890.1	898.02	360	686.44	1160.8	-287.23	914.84	1285.3	-5.9515	648.88	505.44	209.18	765.67	1513.5	-177.14	710.46	898.03	-319.27	672.36	634.4	210.59	534.13	295.59	183.08	795.24	893.47	-276.27	687.96	1548.3	26.89	957.06	1671.2	-34.292	487.92	31.467	91.676	651.86	491.82	62.819	453.96	59.518	83.619	740.59	713.32	216.21	403.17	49.145	169.91	874.98	649.33	-175.59	621.67	1061	-50.72	623.03	1055.5	58.764	476.66	237.45	114.51	845.52	729.1	-195.28	959.23	369.64	-40.903	841	1025.7	163.93	290.26	195	109.09	601.39	357.45	127.16	974.72	200.01	-32.311	964.99	285.31	-36.278	851.69	1456.6	-10.263	899.26	752.6	-186.73	815.43	809.64	-210.13	1067.9	29.575	-123.13	539.33	295.84	118.92	989.34	283.84	-95.181	1114.1	47.674	-37.401	352.63	177.74	152.48	397.96	181.57	62.982	790.26	1683.8	-54.965	904.3	507.18	-6.3599	786	1685.8	86.97	811.91	1318.7	268.18	785.06	1157.6	319.07	972.89	97.316	7.7208	641.7	1431	150.97	847.95	1025.9	-152.42	689.09	804.96	223.16	679.94	718.08	218.13	637.62	1190	8.3725	890.12	43.722	-46.668	666.2	1136.4	-198.05	951.72	67.27	-90.76	753.19	1125.7	233.03
630	3.15	958.21	871.24	360.63	1169.8	42.326	-54.407	898.34	504.91	-148.22	954.3	907.33	294.84	819.21	1497.5	188.94	889.71	1040.3	325.79	961.86	1670.5	70.473	744.3	1328.5	-251.97	761.65	1024.7	-310.21	785.88	857.14	-330.63	893.25	898.64	359.38	692.86	1161.8	-288.4	920.34	1286.2	-6.8461	659.17	505.32	209.65	771.47	1514.6	-178.11	718.01	899.06	-319.97	681.3	633.84	210.52	541.95	297.35	183.68	802.86	894.95	-276.91	693.46	1549.2	25.785	962.71	1671.9	-35.297	489.2	31.221	92.271	663.03	490.84	63.299	456.6	60.995	84.168	748.65	713.54	215.89	405.15	51.632	169.71	878.45	649.64	-176.26	627.13	1061.9	-51.68	628.34	1056.2	57.813	483.8	239.96	115.02	849.68	729.62	-196.05	961.48	369.61	-41.309	846.39	1026.7	162.67	297.18	201.62	109.12	610.25	357.83	127.83	975.81	199.9	-32.489	966.66	285.25	-36.579	857.22	1457.5	-11.229	903.62	752.63	-187.76	820.32	810.4	-211.02	1068	29.37	-123.45	547.34	297.18	119.63	991.03	283.56	-95.451	1114.5	47.464	-37.318	358.63	182.51	152.81	404.42	185.24	63.449	795.93	1684.6	-56.09	907.52	507.55	-7.0379	791.58	1686.7	85.818	817.14	1319.7	267.03	789.56	1158.8	318.08	973.28	97.192	7.666	647.33	1432.1	150.13	853.33	1026.8	-153.55	696.15	804.66	222.27	687.95	717.56	217.51	643.04	1190.9	7.2956	890.29	43.868	-46.735	672.41	1137.4	-199.25	951.99	67.081	-90.868	758.03	1127.1	231.86
631	3.155	961.19	871.33	360.17	1170.3	41.246	-54.373	901.18	505.09	-148.79	957.74	907.66	294.46	824.71	1498.4	187.8	893.63	1041	325.22	967.4	1671.2	69.497	750.46	1329.6	-253.05	768.69	1025.9	-311.02	793.66	858.39	-331.12	896.41	899.25	358.78	699.27	1162.7	-289.62	925.81	1287	-7.6989	669.6	505.18	210.1	777.27	1515.6	-179.07	725.59	900.08	-320.67	690.31	633.27	210.47	550.04	299.1	184.2	810.54	896.46	-277.56	698.93	1550.1	24.682	968.32	1672.5	-36.268	490.75	31.012	92.944	674.33	489.9	63.728	459.57	62.573	84.751	756.75	713.78	215.57	407.49	54.337	169.57	881.71	649.87	-176.86	632.55	1062.8	-52.682	633.58	1056.9	56.822	491.21	242.51	115.48	853.68	730.06	-196.77	963.61	369.57	-41.683	851.7	1027.6	161.44	304.43	208.17	109.14	619.22	358.22	128.42	976.83	199.79	-32.643	968.24	285.19	-36.85	862.72	1458.4	-12.164	907.84	752.54	-188.81	825.08	811.09	-211.88	1068	29.219	-123.72	555.56	298.59	120.32	992.62	283.27	-95.69	1114.9	47.3	-37.208	364.98	187.27	153.12	411.16	188.92	63.874	801.55	1685.5	-57.179	910.53	507.9	-7.6563	797.11	1687.7	84.702	822.32	1320.7	265.91	794.05	1159.9	317.11	973.64	97.064	7.64	652.89	1433.2	149.28	858.7	1027.7	-154.63	703.22	804.34	221.41	696.01	717.02	216.91	648.42	1191.8	6.1978	890.45	43.991	-46.783	678.59	1138.4	-200.5	952.23	66.927	-90.953	762.78	1128.5	230.75
632	3.16	964.18	871.41	359.72	1170.7	40.23	-54.32	903.89	505.23	-149.33	961.18	907.99	294.1	830.14	1499.4	186.7	897.56	1041.7	324.68	972.9	1671.9	68.559	756.6	1330.6	-254.14	775.74	1027.1	-311.85	801.5	859.63	-331.6	899.6	899.86	358.2	705.69	1163.6	-290.88	931.24	1287.9	-8.5108	680.16	505.05	210.52	783.07	1516.6	-180.01	733.22	901.07	-321.4	699.39	632.72	210.43	558.39	300.85	184.62	818.26	897.98	-278.23	704.36	1550.9	23.582	973.9	1673.2	-37.204	492.58	30.858	93.694	685.72	489.04	64.095	462.88	64.246	85.363	764.87	714.04	215.25	410.25	57.252	169.49	884.82	650.03	-177.41	637.92	1063.6	-53.717	638.76	1057.6	55.796	498.86	245.07	115.85	857.52	730.44	-197.44	965.65	369.52	-42.034	856.95	1028.5	160.25	312.01	214.63	109.15	628.29	358.62	128.91	977.81	199.68	-32.781	969.75	285.12	-37.098	868.18	1459.3	-13.067	911.93	752.38	-189.85	829.71	811.71	-212.71	1068.1	29.11	-123.95	563.98	300.08	120.95	994.11	282.99	-95.913	1115.2	47.17	-37.08	371.66	192.02	153.39	418.17	192.59	64.247	807.13	1686.4	-58.233	913.36	508.25	-8.2234	802.61	1688.6	83.624	827.44	1321.7	264.83	798.52	1161	316.17	973.97	96.933	7.6363	658.39	1434.2	148.42	864.03	1028.5	-155.65	710.3	804.01	220.59	704.1	716.47	216.31	653.76	1192.7	5.0872	890.58	44.093	-46.816	684.73	1139.4	-201.82	952.44	66.804	-91.019	767.46	1129.8	229.7
633	3.165	967.18	871.48	359.28	1171	39.275	-54.257	906.47	505.36	-149.83	964.64	908.32	293.74	835.49	1500.3	185.63	901.48	1042.4	324.14	978.35	1672.6	67.661	762.72	1331.6	-255.25	782.8	1028.2	-312.7	809.4	860.87	-332.08	902.8	900.45	357.65	712.11	1164.5	-292.18	936.64	1288.7	-9.2825	690.83	504.93	210.89	788.86	1517.6	-180.93	740.89	902.04	-322.13	708.51	632.19	210.39	566.98	302.59	184.94	826.01	899.51	-278.9	709.75	1551.8	22.485	979.44	1673.9	-38.103	494.75	30.781	94.521	697.17	488.28	64.394	466.57	66.009	86.004	773.01	714.33	214.92	413.47	60.365	169.47	887.81	650.14	-177.9	643.25	1064.5	-54.777	643.89	1058.3	54.743	506.75	247.66	116.14	861.24	730.75	-198.06	967.6	369.47	-42.372	862.12	1029.4	159.1	319.9	220.96	109.13	637.43	359.05	129.3	978.73	199.57	-32.909	971.2	285.05	-37.332	873.61	1460.1	-13.939	915.9	752.15	-190.86	834.21	812.26	-213.49	1068.1	29.035	-124.14	572.58	301.65	121.52	995.52	282.72	-96.129	1115.6	47.066	-36.945	378.66	196.72	153.62	425.45	196.24	64.558	812.68	1687.3	-59.252	916.04	508.59	-8.7476	808.06	1689.5	82.583	832.49	1322.7	263.78	802.98	1162.1	315.26	974.27	96.806	7.6495	663.81	1435.2	147.53	869.34	1029.3	-156.61	717.38	803.68	219.79	712.22	715.94	215.74	659.07	1193.6	3.9721	890.69	44.176	-46.835	690.84	1140.3	-203.19	952.61	66.708	-91.072	772.07	1131.1	228.72
634	3.17	970.21	871.55	358.86	1171.4	38.38	-54.191	908.94	505.47	-150.3	968.11	908.64	293.4	840.77	1501.2	184.61	905.4	1043	323.61	983.76	1673.3	66.805	768.83	1332.5	-256.37	789.88	1029.3	-313.57	817.34	862.09	-332.55	906.03	901.04	357.12	718.54	1165.4	-293.52	941.99	1289.5	-10.015	701.59	504.84	211.23	794.65	1518.5	-181.84	748.59	902.97	-322.88	717.68	631.71	210.34	575.81	304.32	185.16	833.79	901.03	-279.56	715.12	1552.6	21.392	984.96	1674.5	-38.966	497.31	30.804	95.426	708.65	487.63	64.619	470.68	67.856	86.672	781.16	714.66	214.59	417.17	63.658	169.53	890.72	650.21	-178.35	648.52	1065.4	-55.853	648.95	1058.9	53.67	514.88	250.27	116.32	864.86	731.02	-198.63	969.47	369.41	-42.704	867.21	1030.2	158.02	328.07	227.12	109.07	646.61	359.49	129.58	979.62	199.47	-33.032	972.59	284.97	-37.557	879.01	1460.9	-14.779	919.77	751.89	-191.82	838.57	812.75	-214.24	1068.1	28.986	-124.3	581.37	303.31	122.02	996.84	282.44	-96.347	1115.9	46.983	-36.809	385.99	201.36	153.8	432.99	199.85	64.801	818.19	1688.1	-60.236	918.6	508.91	-9.237	813.47	1690.4	81.579	837.48	1323.6	262.78	807.42	1163.1	314.37	974.56	96.687	7.6752	669.15	1436.2	146.62	874.61	1030.1	-157.49	724.47	803.36	219.02	720.36	715.43	215.2	664.33	1194.4	2.8609	890.78	44.243	-46.842	696.92	1141.2	-204.62	952.76	66.634	-91.117	776.6	1132.3	227.8
